# xmcd
#
# Track frame offsets: 
#        150
#        8358
#        27786
#        46479
#        66082
#        81526
#        96577
#        114618
#        140178
#        146427
#        167351
#        190314
#        219677
#
# Disc length: 3017 seconds
#
# Revision: 0
# Processed by: cddbd v1.5.2PL0 Copyright (c) Steve Scherf et al.
# Submitted via: ExactAudioCopy v1.0b3
#
DISCID=ba0bc70d
DTITLE=Eluveitie - Slania
DYEAR=2008
DGENRE=Metal
TTITLE0=Samon
TTITLE1=Primordial Breath
TTITLE2=Inis Mona
TTITLE3=Gray Sublime Archon
TTITLE4=Anagantios
TTITLE5=Bloodstained Ground
TTITLE6=The Somber Lay
TTITLE7=Slanias Song
TTITLE8=Giamonios
TTITLE9=Tarvos
TTITLE10=Calling The Rain
TTITLE11=Elembivos
TTITLE12=Samon (Acoustic version)
EXTD=
EXTT0=
EXTT1=
EXTT2=
EXTT3=
EXTT4=
EXTT5=
EXTT6=
EXTT7=
EXTT8=
EXTT9=
EXTT10=
EXTT11=
EXTT12=
PLAYORDER=
